<svg width="162" height="73" viewBox="0 0 162 73" fill="none" xmlns="http://www.w3.org/2000/svg">
<g clip-path="url(#clip0_15_282)">
<path d="M6.86984 37.2719H0V43.1174H6.86984V61.3271H13.403V43.1174H20.2728V37.2719H13.403H6.86984Z" fill="white"/>
<path d="M28.8619 52.2222H40.8895V46.3768H28.8619V43.1174H42.2578V37.2719H28.8619H25.0796H22.3359V61.3271H25.0796H28.8619H42.6016V55.4817H28.8619V52.2222Z" fill="white"/>
<path d="M48.1032 37.2719H45.3524V61.3271H51.8784V47.6662L60.5391 61.3271H68.2686L56.7281 43.1174H68.4405V37.2719H51.8784H48.1032Z" fill="white"/>
<path d="M102.869 37.2719H96.3426V61.3199H102.869V37.2719Z" fill="white"/>
<path d="M109.051 37.2719H106.307V61.3271H112.833V52.2222H124.517V46.3768H112.833V43.1174H125.892V37.2719H112.833H109.051Z" fill="white"/>
<path d="M134.818 37.2719H128.292V61.3199H134.818V37.2719Z" fill="white"/>
<mask id="mask0_15_282" style="mask-type:luminance" maskUnits="userSpaceOnUse" x="70" y="11" width="24" height="51">
<path d="M70.8475 23.0953V23.4391H76.5354V23.0953C76.5339 21.9371 76.8762 20.8046 77.5187 19.841C78.1613 18.8775 79.0752 18.1262 80.145 17.6824C81.2147 17.2385 82.392 17.122 83.528 17.3476C84.664 17.5732 85.7075 18.1307 86.5264 18.9497C87.3453 19.7686 87.9029 20.8121 88.1285 21.9481C88.3541 23.084 88.2376 24.2614 87.7937 25.3311C87.3499 26.4008 86.5986 27.3148 85.6351 27.9574C84.6715 28.5999 83.539 28.9421 82.3808 28.9407H79.5154V37.2791H70.8475V61.3271H77.3663V47.6662L86.0342 61.3271H93.7637L82.2232 43.1174H93.9356V37.2791H85.2462V34.2847C87.3407 33.7511 89.2434 32.6403 90.7378 31.0788C92.2322 29.5173 93.2584 27.5677 93.6996 25.4518C94.1408 23.3359 93.9794 21.1387 93.2336 19.11C92.4878 17.0814 91.1876 15.3028 89.4809 13.9765C87.7743 12.6502 85.7297 11.8296 83.5797 11.6079C81.4297 11.3861 79.2606 11.7723 77.3192 12.7224C75.3778 13.6724 73.742 15.1483 72.598 16.9821C71.4539 18.8158 70.8474 20.9339 70.8475 23.0953Z" fill="white"/>
</mask>
<g mask="url(#mask0_15_282)">
<path d="M82.3925 -0.00122826L45.9571 36.4341L82.3925 72.8695L118.828 36.4342L82.3925 -0.00122826Z" fill="url(#paint0_linear_15_282)"/>
</g>
<path d="M11.784 70.8332L10.8313 67.803H9.8069L8.84698 70.8332L7.89423 67.803H6.86984L8.33837 72.4593H9.36276L10.3155 69.4291L11.2683 72.4593H12.2926L13.7612 67.803H12.7368L11.784 70.8332Z" fill="white"/>
<path d="M18.5536 69.7013H16.2398V67.803H15.287V72.4593H16.2398V70.5681H18.5536V72.4593H19.4992V67.803H18.5536V69.7013Z" fill="white"/>
<path d="M22.4506 70.5681H24.9578V69.7013H22.4506V68.6698H25.2228V67.803H22.4506H21.8488H21.4978V72.4593H21.8488H22.4506H25.2945V71.5997H22.4506V70.5681Z" fill="white"/>
<path d="M30.8033 70.4392C30.9513 70.312 31.0647 70.1493 31.1328 69.9664C31.2678 69.5423 31.2678 69.0867 31.1328 68.6626C31.0645 68.4779 30.9483 68.3148 30.7961 68.1898C30.6157 68.0523 30.4081 67.9547 30.1872 67.9033C29.8845 67.8317 29.5741 67.798 29.2631 67.803H27.1355V72.4378H28.0883V70.7902H28.733L30.0009 72.4378H31.1614L29.8648 70.7544L30.1729 70.697C30.3917 70.6457 30.5969 70.548 30.7746 70.4105M30.0224 69.7658C29.9299 69.8283 29.8247 69.8699 29.7144 69.8876C29.554 69.9191 29.3907 69.9335 29.2273 69.9305H28.0883V68.6411H29.2273C29.3907 68.6382 29.554 68.6526 29.7144 68.6841C29.8247 68.7017 29.9299 68.7433 30.0224 68.8059C30.0947 68.8529 30.148 68.9239 30.1729 69.0064C30.2033 69.0964 30.2179 69.1909 30.2159 69.2858C30.2173 69.3807 30.2028 69.4752 30.1729 69.5652C30.1498 69.6486 30.096 69.7202 30.0224 69.7658Z" fill="white"/>
<path d="M34.0197 70.5681H36.5269V69.7013H34.0197V68.6698H36.7991V67.803H34.0197H33.4251H33.0741V72.4593H33.4251H34.0197H36.8636V71.5997H34.0197V70.5681Z" fill="white"/>
<path d="M45.2951 70.081C45.1115 69.9565 44.908 69.8645 44.6934 69.8088C44.4309 69.7304 44.1626 69.6729 43.891 69.6368L43.3251 69.5724C43.1958 69.5506 43.0687 69.517 42.9455 69.4721C42.8608 69.4433 42.7845 69.3941 42.7234 69.3288C42.6748 69.2707 42.6493 69.1967 42.6518 69.1211C42.6512 69.0478 42.671 68.9759 42.7091 68.9133C42.7484 68.8457 42.8088 68.7929 42.881 68.7629C42.9778 68.7151 43.0819 68.6836 43.189 68.6697C43.3416 68.6575 43.4949 68.6575 43.6475 68.6697C43.8051 68.6697 43.9555 68.6697 44.0988 68.6697C44.2296 68.6795 44.358 68.711 44.4785 68.7629C44.5818 68.8073 44.671 68.8791 44.7363 68.9706C44.8064 69.0792 44.8415 69.2068 44.8366 69.336H45.7464C45.7511 69.0903 45.7047 68.8464 45.6103 68.6196C45.5217 68.4248 45.3833 68.2568 45.2091 68.1325C45.0184 68.0022 44.8044 67.9098 44.5787 67.8603C44.3008 67.8026 44.0173 67.7762 43.7335 67.7815C43.1867 67.7406 42.6398 67.8575 42.1575 68.1182C41.9872 68.2441 41.8523 68.4117 41.7657 68.605C41.6792 68.7982 41.6438 69.0105 41.6632 69.2213C41.6564 69.434 41.7006 69.6453 41.7921 69.8374C41.8827 70.0007 42.0103 70.1406 42.1646 70.2457C42.3417 70.3599 42.5349 70.4468 42.7377 70.5036C42.9622 70.5705 43.201 70.6278 43.4541 70.6755L43.9197 70.7472C44.0672 70.7655 44.2132 70.7942 44.3567 70.8331C44.4725 70.8666 44.5815 70.9199 44.679 70.9907C44.7181 71.0244 44.7492 71.0662 44.7703 71.1133C44.7913 71.1603 44.8018 71.2114 44.8008 71.2629C44.8048 71.3448 44.7816 71.4256 44.735 71.4929C44.6884 71.5603 44.6209 71.6103 44.5429 71.6355C44.2931 71.7259 44.0274 71.7649 43.7621 71.7501C43.6045 71.7501 43.4469 71.7501 43.2965 71.7501C43.1606 71.7381 43.0276 71.7042 42.9025 71.6498C42.7935 71.6084 42.699 71.5362 42.6303 71.442C42.5593 71.3338 42.5242 71.206 42.53 71.0767H41.6345C41.6309 71.3229 41.6797 71.5672 41.7778 71.7931C41.8685 71.9906 42.0092 72.161 42.1861 72.2873C42.3813 72.4176 42.6005 72.5077 42.8308 72.5524C43.1109 72.6126 43.3968 72.6415 43.6833 72.6384C44.2391 72.678 44.7949 72.5614 45.2879 72.3017C45.462 72.1832 45.6014 72.0206 45.692 71.8305C45.7827 71.6405 45.8212 71.4298 45.8037 71.22C45.8118 70.9995 45.7651 70.7804 45.6676 70.5824C45.5821 70.4098 45.4538 70.2618 45.2951 70.1526" fill="white"/>
<path d="M48.8626 67.803H47.4155V68.6698H48.8626V72.4593H49.8153V68.6698H51.2552V67.803H49.8153H48.8626Z" fill="white"/>
<path d="M55.9473 67.803L54.8799 69.3216L53.8126 67.803H52.6736L54.4071 70.2601V72.4593H55.3599V70.2601L57.0863 67.803H55.9473Z" fill="white"/>
<path d="M59.701 67.803H58.7483V72.4593H59.0993H59.701H62.4303V71.5997H59.701V67.803Z" fill="white"/>
<path d="M65.1811 70.5681H67.6884V69.7013H65.1811V68.6698H67.9534V67.803H65.1811H64.5794H64.2284V72.4593H64.5794H65.1811H68.0179V71.5997H65.1811V70.5681Z" fill="white"/>
<path d="M75.6542 71.134L73.8777 67.803H72.9249V72.4593H73.8777V69.7013L75.3462 72.4593H75.9551L77.4236 69.7013V72.4593H78.3764V67.803H77.4236L75.6542 71.134Z" fill="white"/>
<path d="M81.3206 70.5681H83.8278V69.7013H81.3206V68.6698H84.1001V67.803H81.3206H80.726H80.3679V72.4593H80.726H81.3206H84.1645V71.5997H81.3206V70.5681Z" fill="white"/>
<path d="M86.9583 70.5681H89.4655V69.7013H86.9583V68.6698H89.7306V67.803H86.9583H86.3566H86.0056V72.4593H86.3566H86.9583H89.8022V71.5997H86.9583V70.5681Z" fill="white"/>
<path d="M92.8396 67.803H91.3997V68.6698H92.8396V72.4593H93.7923V68.6698H95.2394V67.803H93.7923H92.8396Z" fill="white"/>
<path d="M100.512 70.081C100.33 69.9579 100.129 69.8659 99.9172 69.8088C99.652 69.7313 99.3815 69.6738 99.1077 69.6369L98.5489 69.5366C98.4175 69.5136 98.2881 69.4801 98.1621 69.4363C98.0783 69.4058 98.0024 69.3568 97.94 69.293C97.8941 69.2335 97.8689 69.1605 97.8684 69.0853C97.8678 69.0121 97.8877 68.9401 97.9257 68.8775C97.9651 68.81 98.0254 68.7571 98.0976 68.7271C98.1949 68.6804 98.2988 68.6489 98.4057 68.634C98.5606 68.6213 98.7163 68.6213 98.8713 68.634C99.0217 68.634 99.1722 68.634 99.3154 68.634C99.4464 68.6428 99.5749 68.6743 99.6951 68.7271C99.8016 68.7694 99.8937 68.8415 99.9602 68.9348C100.028 69.0443 100.06 69.1718 100.053 69.3002H100.963C100.968 69.0546 100.921 68.8106 100.827 68.5838C100.738 68.389 100.6 68.221 100.426 68.0967C100.236 67.9652 100.021 67.8727 99.7954 67.8245C99.5174 67.7668 99.2339 67.7404 98.9501 67.7457C98.4055 67.7025 97.8602 67.8196 97.3813 68.0824C97.2087 68.2065 97.0716 68.3736 96.9836 68.5672C96.8956 68.7607 96.8599 68.9739 96.8798 69.1856C96.8716 69.3992 96.9185 69.6114 97.0159 69.8016C97.1021 69.9681 97.2306 70.1089 97.3884 70.21C97.5648 70.3254 97.7582 70.4124 97.9615 70.4678C98.1973 70.5371 98.4364 70.5944 98.6779 70.6398L99.1435 70.7114C99.2908 70.7311 99.4367 70.7598 99.5805 70.7974C99.6941 70.8307 99.8008 70.8841 99.8957 70.955C99.936 70.9876 99.968 71.0292 99.9891 71.0765C100.01 71.1238 100.02 71.1754 100.017 71.2272C100.021 71.3079 99.9982 71.3875 99.9531 71.4545C99.908 71.5215 99.8427 71.5723 99.7667 71.5997C99.5144 71.6902 99.2464 71.7291 98.9787 71.7143C98.8212 71.7143 98.6636 71.7143 98.5131 71.7143C98.3773 71.7023 98.2442 71.6684 98.1191 71.614C98.0113 71.5741 97.9186 71.5015 97.8541 71.4063C97.7797 71.2996 97.7443 71.1706 97.7538 71.0409H96.8512C96.8475 71.2872 96.8963 71.5314 96.9944 71.7573C97.0875 71.9533 97.2279 72.1231 97.4028 72.2516C97.598 72.3818 97.8171 72.4719 98.0475 72.5166C98.3276 72.5765 98.6135 72.6053 98.9 72.6026C99.458 72.642 100.016 72.5255 100.512 72.2659C100.687 72.1412 100.825 71.9717 100.912 71.775C100.999 71.5784 101.032 71.3619 101.006 71.1484C101.013 70.9288 100.968 70.7106 100.877 70.5108C100.789 70.3377 100.658 70.1898 100.497 70.081" fill="white"/>
<path d="M109.402 71.3131C109.333 71.4139 109.239 71.4952 109.129 71.5495C109.007 71.6031 108.876 71.6369 108.743 71.6498C108.6 71.6606 108.456 71.6606 108.313 71.6498C107.898 71.6836 107.486 71.5523 107.167 71.2845C106.893 70.954 106.76 70.53 106.794 70.1025C106.791 69.8618 106.815 69.6215 106.866 69.3861C106.908 69.2121 106.986 69.0487 107.095 68.9062C107.207 68.7798 107.35 68.6858 107.511 68.634C107.706 68.5661 107.912 68.5345 108.119 68.5409C108.285 68.5421 108.45 68.5541 108.614 68.5767C108.765 68.5958 108.912 68.6368 109.051 68.6984C109.176 68.753 109.285 68.8395 109.366 68.9492C109.447 69.0746 109.487 69.2224 109.481 69.3718H110.397C110.405 69.1014 110.354 68.8325 110.247 68.5838C110.147 68.3717 109.997 68.1872 109.81 68.0466C109.594 67.8999 109.35 67.7999 109.094 67.7529C108.788 67.7057 108.478 67.6913 108.17 67.7099C107.853 67.6824 107.534 67.7211 107.233 67.8234C106.932 67.9258 106.656 68.0896 106.422 68.3045C105.997 68.8165 105.791 69.4754 105.849 70.1383C105.821 70.4693 105.861 70.8023 105.966 71.1174C106.07 71.4326 106.238 71.7233 106.457 71.9722C106.981 72.4087 107.655 72.6222 108.334 72.5668C108.628 72.5694 108.921 72.5406 109.208 72.4808C109.449 72.4319 109.677 72.337 109.882 72.2014C110.067 72.0724 110.215 71.8971 110.311 71.6928C110.416 71.4438 110.465 71.1748 110.455 70.9048H109.545C109.551 71.0486 109.514 71.1909 109.438 71.3131" fill="white"/>
<path d="M114.459 67.7098C114.135 67.6826 113.808 67.7226 113.5 67.8274C113.192 67.9321 112.909 68.0994 112.668 68.3187C112.291 68.849 112.088 69.4838 112.088 70.1347C112.088 70.7857 112.291 71.4204 112.668 71.9507C113.18 72.3503 113.81 72.5674 114.459 72.5674C115.108 72.5674 115.739 72.3503 116.25 71.9507C116.628 71.4204 116.831 70.7857 116.831 70.1347C116.831 69.4838 116.628 68.849 116.25 68.3187C116.01 68.0994 115.726 67.9321 115.418 67.8274C115.11 67.7226 114.784 67.6826 114.459 67.7098ZM115.505 71.2916C115.214 71.5418 114.843 71.6793 114.459 71.6793C114.075 71.6793 113.704 71.5418 113.413 71.2916C113.161 70.9624 113.039 70.5519 113.069 70.1383C113.039 69.7247 113.155 69.3135 113.399 68.9778C113.693 68.728 114.066 68.5908 114.452 68.5908C114.838 68.5908 115.211 68.728 115.505 68.9778C115.757 69.3099 115.879 69.7225 115.849 70.1383C115.88 70.5519 115.757 70.9624 115.505 71.2916Z" fill="white"/>
<path d="M121.881 70.8761L119.646 67.803H118.693V72.4593H119.646V69.3718L121.881 72.4593H122.833V67.803H121.881V70.8761Z" fill="white"/>
<path d="M125.183 67.803H124.832V72.4593H125.778V70.5681H128.242V69.7013H125.778V68.6698H128.507V67.803H125.778H125.183Z" fill="white"/>
<path d="M131.258 67.803H130.305V72.4593H131.258V67.803Z" fill="white"/>
<path d="M136.924 68.3904C136.719 68.1949 136.475 68.0459 136.208 67.9534C135.879 67.8497 135.535 67.8013 135.19 67.8101H133.242V72.4378H135.148C135.493 72.4446 135.836 72.3937 136.165 72.2873C136.433 72.1974 136.678 72.048 136.881 71.8503C137.081 71.647 137.235 71.4026 137.332 71.134C137.438 70.808 137.489 70.4666 137.483 70.1239C137.489 69.7789 137.438 69.4352 137.332 69.1067C137.234 68.8389 137.08 68.5948 136.881 68.3904M136.408 70.7687C136.354 70.9387 136.263 71.095 136.143 71.2271C136.026 71.3522 135.881 71.4479 135.721 71.5065C135.539 71.5727 135.347 71.6043 135.155 71.5996H134.159V68.6697H135.155C135.347 68.6686 135.539 68.7001 135.721 68.7629C135.881 68.8215 136.026 68.9172 136.143 69.0422C136.262 69.1727 136.352 69.3264 136.408 69.4935C136.469 69.7005 136.498 69.9155 136.494 70.1311C136.498 70.3467 136.469 70.5616 136.408 70.7687Z" fill="white"/>
<path d="M140.341 70.5681H142.848V69.7013H140.341V68.6698H143.113V67.803H140.341H139.739H139.388V72.4593H139.739H140.341H143.185V71.5997H140.341V70.5681Z" fill="white"/>
<path d="M148.214 70.8761L145.979 67.803H145.026V72.4593H145.979V69.3718L148.214 72.4593H149.167V67.803H148.214V70.8761Z" fill="white"/>
<path d="M154.618 71.3131C154.55 71.4152 154.456 71.4969 154.346 71.5495C154.223 71.6031 154.092 71.6369 153.959 71.6498C153.816 71.6606 153.672 71.6606 153.529 71.6498C153.114 71.6836 152.702 71.5523 152.383 71.2845C152.11 70.954 151.976 70.5299 152.01 70.1025C152.005 69.8613 152.032 69.6205 152.089 69.3861C152.126 69.2099 152.204 69.0452 152.319 68.9062C152.426 68.7783 152.568 68.6838 152.727 68.634C152.922 68.566 153.129 68.5345 153.336 68.5408C153.501 68.5421 153.666 68.554 153.83 68.5766C153.981 68.5958 154.128 68.6368 154.267 68.6984C154.392 68.753 154.501 68.8394 154.582 68.9491C154.666 69.0738 154.709 69.2216 154.704 69.3718H155.614C155.621 69.1013 155.57 68.8324 155.463 68.5838C155.368 68.3693 155.217 68.184 155.026 68.0465C154.811 67.8999 154.567 67.7999 154.31 67.7528C153.992 67.6857 153.668 67.6545 153.343 67.6597C153.026 67.6322 152.707 67.6709 152.406 67.7732C152.106 67.8756 151.829 68.0394 151.595 68.2543C151.17 68.7664 150.964 69.4253 151.022 70.0882C150.995 70.4191 151.034 70.7521 151.139 71.0673C151.244 71.3824 151.411 71.6731 151.631 71.922C152.154 72.3585 152.828 72.572 153.508 72.5166C153.801 72.5193 154.094 72.4905 154.382 72.4306C154.622 72.3817 154.851 72.2868 155.055 72.1513C155.24 72.0223 155.389 71.8469 155.485 71.6426C155.592 71.3942 155.644 71.1252 155.635 70.8547H154.733C154.739 70.9985 154.701 71.1408 154.625 71.263" fill="white"/>
<path d="M158.386 71.5997V70.5681H160.893V69.7013H158.386V68.6698H161.166V67.803H158.386H157.791H157.433V72.4593H157.791H158.386H161.23V71.5997H158.386Z" fill="white"/>
<path d="M155.299 53.0962C155.324 53.5694 155.171 54.0349 154.869 54.3999C154.565 54.7253 154.186 54.9713 153.766 55.1163C153.27 55.2897 152.755 55.4004 152.233 55.4458C151.659 55.496 151.094 55.5246 150.52 55.5246C148.479 55.5246 146.939 55.0303 145.972 54.0274C145.005 53.0245 144.489 51.4271 144.489 49.235C144.471 48.2885 144.567 47.3433 144.775 46.4198C144.922 45.718 145.231 45.0605 145.678 44.4999C146.108 43.9819 146.674 43.5927 147.311 43.3752C148.09 43.1352 148.904 43.031 149.718 43.0672C150.372 43.0657 151.025 43.104 151.674 43.1818C152.273 43.2421 152.861 43.3843 153.422 43.6045C153.896 43.791 154.324 44.0796 154.675 44.4498C154.998 44.8224 155.167 45.3039 155.148 45.7965H161.08C161.129 44.4538 160.884 43.1165 160.363 41.8781C159.87 40.8202 159.106 39.911 158.15 39.2419C157.068 38.5109 155.85 38.0065 154.568 37.759C152.975 37.4342 151.351 37.2805 149.725 37.3006C145.771 37.3006 142.839 38.282 140.928 40.2448C139.018 42.2076 138.063 45.233 138.063 49.321C138.063 53.409 139.083 56.4344 141.122 58.3972C143.161 60.36 146.304 61.3438 150.549 61.3486C152.019 61.3618 153.487 61.2178 154.926 60.9188C156.134 60.6859 157.286 60.2186 158.314 59.5434C159.241 58.9074 159.982 58.0374 160.463 57.0218C161.004 55.8057 161.263 54.4836 161.223 53.1535L155.299 53.0962Z" fill="white"/>
</g>
<defs>
<linearGradient id="paint0_linear_15_282" x1="60.0545" y1="28.3569" x2="94.2561" y2="62.5584" gradientUnits="userSpaceOnUse">
<stop stop-color="#FBF7B7"/>
<stop offset="0.27" stop-color="#D09E25"/>
<stop offset="0.53" stop-color="#FFF177"/>
<stop offset="1" stop-color="#FFF686"/>
</linearGradient>
<clipPath id="clip0_15_282">
<rect width="161.23" height="72.8676" fill="white"/>
</clipPath>
</defs>
</svg>
