<svg width="162" height="73" viewBox="0 0 109 41" fill="none" xmlns="http://www.w3.org/2000/svg">
<path d="M4.60929 17.2601H0V21.1821H4.60929V33.3998H8.99269V21.1821H13.602V17.2601H8.99269H4.60929Z" fill="black"/>
<path d="M19.3647 27.2909H27.4345V23.3689H19.3647V21.1821H28.3526V17.2601H19.3647H16.8269H14.9861V33.3998H16.8269H19.3647H28.5833V29.4778H19.3647V27.2909Z" fill="black"/>
<path d="M32.2746 17.2601H30.429V33.3998H34.8075V24.2341L40.6184 33.3998H45.8045L38.0614 21.1821H45.9198V17.2601H34.8075H32.2746Z" fill="black"/>
<path d="M69.0192 17.2601H64.6406V33.395H69.0192V17.2601Z" fill="black"/>
<path d="M73.167 17.2601H71.3262V33.3998H75.7048V27.2909H83.5439V23.3689H75.7048V21.1821H84.4667V17.2601H75.7048H73.167Z" fill="black"/>
<path d="M90.4555 17.2601H86.0769V33.395H90.4555V17.2601Z" fill="black"/>
<mask id="mask0_123_248" style="mask-type:luminance" maskUnits="userSpaceOnUse" x="47" y="0" width="17" height="34">
<path d="M47.5349 7.7483V7.97901H51.3512V7.7483C51.3502 6.97125 51.5798 6.21138 52.0109 5.56489C52.4421 4.91839 53.0553 4.41434 53.773 4.11654C54.4907 3.81873 55.2807 3.74056 56.0428 3.89192C56.805 4.04329 57.5051 4.41738 58.0546 4.96684C58.6041 5.5163 58.9782 6.21643 59.1295 6.9786C59.2809 7.74077 59.2027 8.53071 58.9049 9.24843C58.6071 9.96616 58.103 10.5794 57.4566 11.0105C56.8101 11.4416 56.0502 11.6712 55.2731 11.6703H53.3506V17.2649H47.5349V33.3998H51.9087V24.2341L57.7244 33.3998H62.9104L55.1674 21.1821H63.0258V17.2649H57.1957V15.2558C58.601 14.8978 59.8776 14.1525 60.8802 13.1048C61.8829 12.0571 62.5714 10.7491 62.8675 9.32942C63.1635 7.90977 63.0551 6.43554 62.5547 5.07443C62.0544 3.71331 61.182 2.51995 60.0369 1.6301C58.8919 0.740252 57.52 0.18963 56.0775 0.0408741C54.635 -0.107882 53.1797 0.151199 51.8771 0.788645C50.5745 1.42609 49.477 2.41631 48.7094 3.64667C47.9417 4.87702 47.5348 6.29812 47.5349 7.7483Z" fill="white"/>
</mask>
<g mask="url(#mask0_123_248)">
<path d="M55.2811 -7.74817L30.835 16.698L55.2811 41.1442L79.7273 16.698L55.2811 -7.74817Z" fill="url(#paint0_linear_123_248)"/>
</g>
<path d="M7.90629 39.7778L7.26704 37.7448H6.57974L5.93568 39.7778L5.29644 37.7448H4.60913L5.59443 40.8689H6.28174L6.92099 38.8358L7.56023 40.8689H8.24754L9.23284 37.7448H8.54553L7.90629 39.7778Z" fill="black"/>
<path d="M12.4485 39.0184H10.8961V37.7448H10.2568V40.8689H10.8961V39.6H12.4485V40.8689H13.083V37.7448H12.4485V39.0184Z" fill="black"/>
<path d="M15.0631 39.6H16.7453V39.0184H15.0631V38.3263H16.9231V37.7448H15.0631H14.6593H14.4238V40.8689H14.6593H15.0631H16.9712V40.2921H15.0631V39.6Z" fill="black"/>
<path d="M20.6672 39.5135C20.7665 39.4282 20.8426 39.319 20.8882 39.1963C20.9788 38.9117 20.9788 38.6061 20.8882 38.3215C20.8424 38.1976 20.7644 38.0881 20.6623 38.0043C20.5413 37.9121 20.402 37.8465 20.2538 37.812C20.0507 37.764 19.8424 37.7414 19.6338 37.7448H18.2063V40.8545H18.8455V39.749H19.2781L20.1288 40.8545H20.9075L20.0375 39.725L20.2442 39.6865C20.391 39.6521 20.5287 39.5865 20.6479 39.4943M20.1433 39.0617C20.0811 39.1037 20.0106 39.1316 19.9366 39.1434C19.829 39.1645 19.7194 39.1742 19.6098 39.1722H18.8455V38.3071H19.6098C19.7194 38.3051 19.829 38.3148 19.9366 38.3359C20.0106 38.3478 20.0811 38.3757 20.1433 38.4176C20.1917 38.4492 20.2275 38.4969 20.2442 38.5522C20.2646 38.6125 20.2744 38.676 20.273 38.7397C20.274 38.8033 20.2643 38.8667 20.2442 38.9271C20.2287 38.9831 20.1926 39.0311 20.1433 39.0617Z" fill="black"/>
<path d="M22.8254 39.6H24.5076V39.0184H22.8254V38.3263H24.6902V37.7448H22.8254H22.4264H22.1909V40.8689H22.4264H22.8254H24.7335V40.2921H22.8254V39.6Z" fill="black"/>
<path d="M30.3905 39.2732C30.2673 39.1897 30.1308 39.1279 29.9868 39.0905C29.8106 39.038 29.6306 38.9994 29.4485 38.9752L29.0688 38.9319C28.982 38.9173 28.8967 38.8948 28.814 38.8646C28.7572 38.8453 28.706 38.8123 28.665 38.7685C28.6324 38.7295 28.6153 38.6799 28.617 38.6291C28.6166 38.58 28.6299 38.5317 28.6554 38.4897C28.6818 38.4444 28.7223 38.409 28.7708 38.3888C28.8357 38.3567 28.9056 38.3356 28.9774 38.3263C29.0798 38.3181 29.1827 38.3181 29.285 38.3263C29.3908 38.3263 29.4917 38.3263 29.5878 38.3263C29.6756 38.3329 29.7617 38.354 29.8426 38.3888C29.9119 38.4186 29.9717 38.4668 30.0156 38.5282C30.0626 38.6011 30.0861 38.6866 30.0829 38.7733H30.6933C30.6964 38.6085 30.6653 38.4448 30.602 38.2927C30.5425 38.162 30.4497 38.0492 30.3328 37.9658C30.2048 37.8785 30.0612 37.8165 29.9099 37.7832C29.7234 37.7445 29.5331 37.7268 29.3427 37.7303C28.9759 37.7029 28.6089 37.7813 28.2853 37.9562C28.1711 38.0407 28.0806 38.1532 28.0225 38.2829C27.9644 38.4125 27.9407 38.5549 27.9537 38.6964C27.9491 38.8391 27.9788 38.9809 28.0402 39.1098C28.101 39.2193 28.1866 39.3132 28.2901 39.3837C28.4089 39.4603 28.5385 39.5186 28.6746 39.5567C28.8252 39.6016 28.9854 39.6401 29.1553 39.6721L29.4677 39.7202C29.5667 39.7324 29.6646 39.7517 29.7609 39.7778C29.8386 39.8003 29.9117 39.8361 29.9772 39.8836C30.0033 39.9062 30.0242 39.9342 30.0384 39.9658C30.0525 39.9974 30.0595 40.0316 30.0589 40.0662C30.0615 40.1211 30.046 40.1753 30.0147 40.2205C29.9834 40.2657 29.9381 40.2993 29.8858 40.3161C29.7182 40.3769 29.54 40.403 29.3619 40.3931C29.2562 40.3931 29.1505 40.3931 29.0495 40.3931C28.9584 40.385 28.8691 40.3623 28.7852 40.3258C28.7121 40.298 28.6486 40.2495 28.6025 40.1864C28.5549 40.1138 28.5314 40.028 28.5352 39.9413H27.9345C27.932 40.1065 27.9648 40.2703 28.0306 40.4219C28.0914 40.5544 28.1859 40.6688 28.3045 40.7535C28.4355 40.8409 28.5826 40.9014 28.7371 40.9314C28.925 40.9718 29.1169 40.9911 29.3091 40.989C29.682 41.0156 30.0549 40.9374 30.3857 40.7631C30.5025 40.6836 30.596 40.5746 30.6568 40.447C30.7176 40.3195 30.7435 40.1782 30.7318 40.0374C30.7372 39.8894 30.7058 39.7424 30.6404 39.6096C30.583 39.4938 30.497 39.3945 30.3905 39.3212" fill="black"/>
<path d="M32.7841 37.7448H31.8132V38.3263H32.7841V40.8689H33.4234V38.3263H34.3894V37.7448H33.4234H32.7841Z" fill="black"/>
<path d="M37.5376 37.7448L36.8214 38.7637L36.1053 37.7448H35.3411L36.5042 39.3933V40.8689H37.1434V39.3933L38.3018 37.7448H37.5376Z" fill="black"/>
<path d="M40.056 37.7448H39.4167V40.8689H39.6523H40.056H41.8872V40.2921H40.056V37.7448Z" fill="black"/>
<path d="M43.733 39.6H45.4152V39.0184H43.733V38.3263H45.5931V37.7448H43.733H43.3293H43.0938V40.8689H43.3293H43.733H45.6363V40.2921H43.733V39.6Z" fill="black"/>
<path d="M50.7597 39.9797L49.5677 37.7448H48.9285V40.8689H49.5677V39.0184L50.553 40.8689H50.9616L51.9469 39.0184V40.8689H52.5861V37.7448H51.9469L50.7597 39.9797Z" fill="black"/>
<path d="M54.5616 39.6H56.2438V39.0184H54.5616V38.3263H56.4265V37.7448H54.5616H54.1627H53.9224V40.8689H54.1627H54.5616H56.4697V40.2921H54.5616V39.6Z" fill="black"/>
<path d="M58.3443 39.6H60.0265V39.0184H58.3443V38.3263H60.2044V37.7448H58.3443H57.9406H57.7051V40.8689H57.9406H58.3443H60.2524V40.2921H58.3443V39.6Z" fill="black"/>
<path d="M62.2903 37.7448H61.3242V38.3263H62.2903V40.8689H62.9295V38.3263H63.9004V37.7448H62.9295H62.2903Z" fill="black"/>
<path d="M67.4379 39.2732C67.3159 39.1906 67.1811 39.1289 67.0389 39.0905C66.8611 39.0385 66.6795 38.9999 66.4958 38.9752L66.1209 38.9079C66.0327 38.8925 65.9459 38.87 65.8614 38.8406C65.8051 38.8201 65.7542 38.7873 65.7124 38.7445C65.6816 38.7045 65.6647 38.6556 65.6643 38.6051C65.6639 38.556 65.6773 38.5077 65.7028 38.4657C65.7292 38.4204 65.7697 38.3849 65.8181 38.3648C65.8834 38.3334 65.9531 38.3123 66.0248 38.3023C66.1288 38.2938 66.2332 38.2938 66.3372 38.3023C66.4381 38.3023 66.5391 38.3023 66.6352 38.3023C66.7231 38.3082 66.8093 38.3293 66.8899 38.3648C66.9614 38.3931 67.0232 38.4415 67.0678 38.5042C67.1131 38.5776 67.1349 38.6631 67.1303 38.7493H67.7407C67.7438 38.5845 67.7127 38.4208 67.6493 38.2686C67.5899 38.1379 67.4971 38.0252 67.3802 37.9418C67.2527 37.8536 67.1089 37.7915 66.9572 37.7592C66.7707 37.7205 66.5805 37.7027 66.3901 37.7063C66.0247 37.6773 65.6588 37.7559 65.3375 37.9322C65.2217 38.0155 65.1297 38.1276 65.0707 38.2575C65.0116 38.3873 64.9876 38.5304 65.001 38.6724C64.9955 38.8157 65.027 38.9581 65.0924 39.0857C65.1502 39.1974 65.2364 39.2919 65.3423 39.3597C65.4606 39.4371 65.5904 39.4955 65.7268 39.5327C65.885 39.5792 66.0454 39.6177 66.2074 39.6481L66.5199 39.6961C66.6187 39.7093 66.7166 39.7286 66.813 39.7538C66.8893 39.7762 66.9609 39.812 67.0245 39.8596C67.0515 39.8814 67.073 39.9094 67.0872 39.9411C67.1014 39.9728 67.1079 40.0075 67.1062 40.0422C67.1084 40.0963 67.0933 40.1497 67.063 40.1947C67.0328 40.2396 66.989 40.2738 66.938 40.2921C66.7687 40.3528 66.5889 40.379 66.4093 40.369C66.3036 40.369 66.1978 40.369 66.0969 40.369C66.0057 40.361 65.9165 40.3382 65.8325 40.3017C65.7602 40.2749 65.698 40.2262 65.6547 40.1624C65.6048 40.0908 65.581 40.0042 65.5874 39.9172H64.9818C64.9794 40.0825 65.0121 40.2463 65.0779 40.3979C65.1404 40.5294 65.2345 40.6433 65.3519 40.7295C65.4829 40.8169 65.6299 40.8773 65.7845 40.9073C65.9724 40.9475 66.1642 40.9668 66.3564 40.965C66.7309 40.9915 67.1053 40.9133 67.4379 40.7391C67.5554 40.6555 67.6483 40.5417 67.7066 40.4098C67.765 40.2778 67.7867 40.1326 67.7695 39.9893C67.7738 39.842 67.7442 39.6956 67.683 39.5616C67.6239 39.4454 67.5362 39.3462 67.4283 39.2732" fill="black"/>
<path d="M73.4026 40.0999C73.3562 40.1674 73.2933 40.222 73.2199 40.2585C73.1375 40.2944 73.0499 40.3171 72.9604 40.3258C72.8644 40.333 72.768 40.333 72.672 40.3258C72.3934 40.3484 72.1171 40.2604 71.903 40.0806C71.7196 39.8589 71.63 39.5744 71.653 39.2876C71.6509 39.1261 71.667 38.9648 71.7011 38.807C71.7297 38.6902 71.7821 38.5806 71.8549 38.4849C71.9297 38.4001 72.026 38.337 72.1337 38.3023C72.2649 38.2567 72.4034 38.2355 72.5422 38.2398C72.6532 38.2406 72.7639 38.2487 72.8739 38.2638C72.975 38.2767 73.0738 38.3042 73.167 38.3455C73.251 38.3822 73.324 38.4402 73.3785 38.5138C73.4331 38.5979 73.46 38.6971 73.4554 38.7973H74.0706C74.0758 38.6159 74.0413 38.4355 73.9697 38.2686C73.9029 38.1263 73.8022 38.0025 73.6765 37.9082C73.5317 37.8098 73.368 37.7427 73.1959 37.7111C72.9908 37.6794 72.783 37.6698 72.5759 37.6823C72.3634 37.6638 72.1494 37.6898 71.9475 37.7584C71.7457 37.8271 71.5603 37.937 71.4031 38.0812C71.1181 38.4248 70.9799 38.8669 71.0186 39.3116C71.0003 39.5337 71.027 39.7571 71.0972 39.9686C71.1674 40.18 71.2797 40.3751 71.4271 40.542C71.7784 40.8349 72.2306 40.9782 72.6864 40.941C72.8834 40.9428 73.0799 40.9234 73.2728 40.8833C73.434 40.8505 73.5874 40.7868 73.7246 40.6959C73.8489 40.6093 73.9484 40.4916 74.013 40.3546C74.0833 40.1875 74.1161 40.007 74.1091 39.8259H73.4987C73.5027 39.9224 73.4776 40.0179 73.4266 40.0999" fill="black"/>
<path d="M76.7957 37.6823C76.5781 37.664 76.359 37.6908 76.1523 37.7611C75.9455 37.8314 75.7555 37.9437 75.5941 38.0908C75.3407 38.4466 75.2046 38.8725 75.2046 39.3092C75.2046 39.746 75.3407 40.1719 75.5941 40.5276C75.9372 40.7958 76.3602 40.9415 76.7957 40.9415C77.2312 40.9415 77.6541 40.7958 77.9973 40.5276C78.2506 40.1719 78.3868 39.746 78.3868 39.3092C78.3868 38.8725 78.2506 38.4466 77.9973 38.0908C77.8359 37.9437 77.6459 37.8314 77.4391 37.7611C77.2324 37.6908 77.0133 37.664 76.7957 37.6823ZM77.4974 40.0854C77.3021 40.2533 77.0532 40.3456 76.7957 40.3456C76.5382 40.3456 76.2892 40.2533 76.094 40.0854C75.9247 39.8645 75.8426 39.5891 75.8633 39.3116C75.8426 39.0341 75.921 38.7583 76.0844 38.533C76.2816 38.3654 76.532 38.2733 76.7909 38.2733C77.0497 38.2733 77.3002 38.3654 77.4974 38.533C77.6666 38.7558 77.7486 39.0326 77.7281 39.3116C77.7487 39.5891 77.6666 39.8645 77.4974 40.0854Z" fill="black"/>
<path d="M81.7751 39.8067L80.2755 37.7448H79.6362V40.8689H80.2755V38.7973L81.7751 40.8689H82.4143V37.7448H81.7751V39.8067Z" fill="black"/>
<path d="M83.9909 37.7448H83.7554V40.8689H84.3898V39.6H86.0432V39.0184H84.3898V38.3263H86.221V37.7448H84.3898H83.9909Z" fill="black"/>
<path d="M88.0667 37.7448H87.4275V40.8689H88.0667V37.7448Z" fill="black"/>
<path d="M91.8687 38.1389C91.7314 38.0078 91.5674 37.9078 91.388 37.8457C91.1674 37.7761 90.9368 37.7436 90.7055 37.7496H89.3982V40.8545H90.6767C90.9082 40.859 91.1389 40.8249 91.3592 40.7535C91.5394 40.6932 91.7037 40.593 91.8398 40.4603C91.9743 40.3239 92.0776 40.1599 92.1426 39.9797C92.2137 39.761 92.2478 39.5319 92.2436 39.302C92.2477 39.0705 92.2136 38.8399 92.1426 38.6195C92.0765 38.4398 91.9733 38.2761 91.8398 38.1389M91.5226 39.7346C91.486 39.8487 91.4254 39.9536 91.3448 40.0422C91.2663 40.1261 91.1691 40.1903 91.0612 40.2296C90.9397 40.274 90.8109 40.2952 90.6815 40.2921H90.0134V38.3263H90.6815C90.8107 38.3256 90.9391 38.3467 91.0612 38.3888C91.1691 38.4281 91.2663 38.4923 91.3448 38.5762C91.4243 38.6638 91.4849 38.7669 91.5226 38.879C91.5632 39.0179 91.5826 39.1621 91.5803 39.3068C91.5826 39.4515 91.5632 39.5957 91.5226 39.7346Z" fill="black"/>
<path d="M94.1612 39.6H95.8434V39.0184H94.1612V38.3263H96.0213V37.7448H94.1612H93.7575H93.522V40.8689H93.7575H94.1612H96.0693V40.2921H94.1612V39.6Z" fill="black"/>
<path d="M99.4433 39.8067L97.9437 37.7448H97.3044V40.8689H97.9437V38.7973L99.4433 40.8689H100.083V37.7448H99.4433V39.8067Z" fill="black"/>
<path d="M103.74 40.0999C103.695 40.1684 103.632 40.2232 103.558 40.2585C103.475 40.2944 103.388 40.3171 103.298 40.3258C103.202 40.333 103.106 40.333 103.01 40.3258C102.731 40.3484 102.455 40.2604 102.241 40.0806C102.057 39.8589 101.968 39.5744 101.991 39.2876C101.987 39.1258 102.005 38.9642 102.044 38.807C102.068 38.6887 102.121 38.5782 102.197 38.4849C102.269 38.3991 102.364 38.3358 102.471 38.3023C102.603 38.2567 102.741 38.2355 102.88 38.2398C102.991 38.2406 103.102 38.2487 103.212 38.2638C103.313 38.2767 103.411 38.3042 103.505 38.3455C103.589 38.3822 103.662 38.4402 103.716 38.5138C103.772 38.5974 103.801 38.6966 103.798 38.7973H104.408C104.413 38.6159 104.379 38.4355 104.307 38.2686C104.243 38.1247 104.142 38.0004 104.014 37.9082C103.869 37.8098 103.706 37.7427 103.534 37.7111C103.32 37.6661 103.103 37.6451 102.885 37.6486C102.672 37.6302 102.458 37.6561 102.256 37.7248C102.054 37.7935 101.869 37.9034 101.712 38.0476C101.427 38.3911 101.289 38.8332 101.327 39.278C101.309 39.5 101.336 39.7235 101.406 39.9349C101.476 40.1463 101.588 40.3414 101.736 40.5084C102.087 40.8013 102.539 40.9445 102.995 40.9073C103.192 40.9091 103.389 40.8898 103.582 40.8497C103.743 40.8168 103.896 40.7532 104.033 40.6622C104.158 40.5757 104.257 40.458 104.322 40.321C104.394 40.1543 104.428 39.9738 104.423 39.7923H103.817C103.821 39.8887 103.796 39.9842 103.745 40.0662" fill="black"/>
<path d="M106.268 40.2921V39.6H107.951V39.0184H106.268V38.3263H108.133V37.7448H106.268H105.869H105.629V40.8689H105.869H106.268H108.177V40.2921H106.268Z" fill="black"/>
<path d="M104.197 27.8773C104.214 28.1948 104.111 28.5071 103.909 28.7521C103.705 28.9704 103.451 29.1354 103.168 29.2327C102.836 29.3491 102.491 29.4233 102.14 29.4538C101.755 29.4874 101.376 29.5067 100.991 29.5067C99.6212 29.5067 98.5879 29.175 97.939 28.5021C97.2902 27.8292 96.9441 26.7574 96.9441 25.2867C96.9321 24.6516 96.9966 24.0174 97.1364 23.3978C97.2348 22.927 97.4422 22.4858 97.742 22.1097C98.0309 21.7621 98.4101 21.501 98.8378 21.3551C99.3603 21.194 99.9066 21.1241 100.453 21.1484C100.891 21.1474 101.329 21.1731 101.765 21.2253C102.167 21.2658 102.562 21.3612 102.938 21.5089C103.256 21.634 103.543 21.8277 103.779 22.076C103.995 22.326 104.109 22.6491 104.096 22.9796H108.076C108.109 22.0787 107.945 21.1815 107.595 20.3506C107.264 19.6408 106.752 19.0308 106.11 18.5818C105.384 18.0914 104.567 17.7529 103.707 17.5869C102.638 17.369 101.548 17.2659 100.458 17.2793C97.8044 17.2793 95.837 17.9378 94.5554 19.2547C93.2737 20.5716 92.6328 22.6015 92.6328 25.3444C92.6328 28.0872 93.3169 30.1171 94.6851 31.434C96.0533 32.7509 98.1617 33.411 101.01 33.4142C101.997 33.4231 102.981 33.3264 103.947 33.1258C104.758 32.9696 105.53 32.6561 106.22 32.203C106.842 31.7763 107.34 31.1926 107.662 30.5112C108.025 29.6953 108.199 28.8082 108.172 27.9158L104.197 27.8773Z" fill="black"/>
<defs>
<linearGradient id="paint0_linear_123_248" x1="40.2935" y1="11.2786" x2="63.2409" y2="34.226" gradientUnits="userSpaceOnUse">
<stop stop-color="#FBF7B7"/>
<stop offset="0.27" stop-color="#D09E25"/>
<stop offset="0.53" stop-color="#FFF177"/>
<stop offset="1" stop-color="#FFF686"/>
</linearGradient>
</defs>
</svg>

